<?xml version="1.0" standalone="no"?>
<!DOCTYPE svg PUBLIC "-//W3C//DTD SVG 20010904//EN"
 "http://www.w3.org/TR/2001/REC-SVG-20010904/DTD/svg10.dtd">
<svg version="1.0" xmlns="http://www.w3.org/2000/svg"
 width="496.000000pt" height="496.000000pt" viewBox="0 0 496.000000 496.000000"
 preserveAspectRatio="xMidYMid meet">
<metadata>
Created by potrace 1.11, written by Peter Selinger 2001-2013
</metadata>
<g transform="translate(0.000000,496.000000) scale(0.100000,-0.100000)"
fill="#000000" stroke="none">
<path d="M2385 4763 c-117 -61 -155 -168 -155 -439 0 -133 -4 -173 -20 -226
-46 -149 -85 -459 -75 -598 5 -76 2 -113 -13 -185 -33 -150 -35 -186 -16 -298
17 -98 17 -108 1 -173 -19 -76 -55 -135 -93 -153 -56 -25 -150 -5 -211 46 -12
10 -52 72 -88 138 -81 145 -116 198 -166 250 -25 26 -67 100 -120 210 -45 93
-98 196 -119 230 -36 57 -84 162 -161 355 -60 149 -176 237 -301 228 -56 -4
-64 -8 -99 -45 -44 -48 -59 -94 -59 -185 0 -48 7 -86 26 -135 14 -37 46 -125
69 -195 24 -70 55 -146 68 -170 14 -24 57 -121 96 -216 80 -196 111 -259 152
-317 16 -22 67 -132 114 -243 87 -209 162 -365 197 -414 10 -15 17 -32 13 -38
-3 -5 -32 -17 -63 -26 -77 -22 -106 -45 -136 -106 -22 -44 -26 -65 -26 -143 0
-61 7 -116 20 -166 16 -56 23 -126 30 -294 14 -346 25 -432 72 -563 40 -110
87 -171 255 -330 224 -212 307 -270 458 -322 107 -37 379 -70 577 -70 132 0
213 17 370 76 305 115 434 225 552 469 67 140 88 199 127 364 31 133 32 137
26 315 -4 100 -13 215 -21 256 -9 41 -21 100 -27 130 -14 69 -5 271 16 360 9
35 29 85 45 111 36 55 58 117 111 309 53 194 88 300 109 330 41 59 84 162 155
371 42 123 95 265 118 314 42 89 42 91 42 205 0 105 -2 120 -26 165 -76 146
-232 120 -332 -55 -14 -25 -42 -94 -62 -154 -24 -71 -63 -154 -112 -240 -111
-191 -243 -455 -303 -607 -56 -139 -94 -199 -149 -236 -70 -47 -137 -16 -188
87 -26 53 -36 93 -53 210 -12 80 -36 222 -55 315 -19 94 -43 240 -55 325 -24
187 -39 245 -150 601 -32 100 -40 142 -40 201 0 78 -27 203 -56 260 -54 107
-179 159 -269 111z m129 -49 c9 -3 13 -10 10 -15 -3 -5 2 -6 10 -3 18 7 79
-73 71 -93 -2 -8 -1 -12 4 -9 11 7 35 -79 27 -99 -3 -9 -2 -13 4 -10 6 3 10
-4 10 -15 0 -21 -2 -20 -35 9 -90 79 -244 54 -304 -49 l-21 -35 0 39 c0 65 20
160 43 201 38 68 118 103 181 79z m65 -292 c20 -21 51 -72 68 -113 37 -89 104
-311 106 -355 1 -18 6 -30 10 -27 5 3 7 -5 5 -18 -4 -31 -93 -76 -163 -85 -71
-8 -86 -16 -50 -24 44 -11 164 -11 210 0 22 5 40 8 41 7 3 -2 38 -228 58 -367
8 -58 26 -157 40 -220 13 -63 32 -165 41 -227 17 -110 17 -113 -2 -145 -11
-18 -27 -32 -36 -32 -9 1 -14 -2 -11 -7 12 -19 -53 -31 -144 -26 -103 6 -109
-1 -29 -37 78 -35 143 -54 232 -66 73 -11 82 -15 105 -45 14 -18 27 -33 30
-33 3 1 22 -6 42 -15 51 -23 76 -21 133 8 27 13 53 21 58 18 6 -3 7 -1 3 5 -7
12 33 59 47 54 5 -1 6 2 2 8 -3 5 2 22 13 38 10 15 37 74 60 132 53 139 132
303 233 486 45 82 88 161 96 177 8 15 19 27 24 27 5 0 8 3 7 8 -1 4 5 21 13
37 9 17 30 75 48 131 66 208 167 308 255 251 63 -42 77 -250 23 -354 -15 -29
-32 -53 -38 -53 -5 0 -7 5 -3 12 4 6 3 8 -3 5 -5 -3 -31 0 -58 8 -55 17 -113
19 -135 5 -11 -7 -9 -11 13 -19 16 -6 33 -11 39 -11 12 0 109 -48 121 -60 10
-9 -115 -391 -143 -438 -23 -38 -37 -39 -116 -12 -88 31 -143 42 -161 32 -12
-7 1 -17 55 -42 68 -31 93 -51 126 -102 14 -22 14 -28 -4 -76 -11 -28 -42
-130 -69 -227 -51 -183 -66 -212 -121 -235 -24 -10 -36 -8 -77 10 -70 31 -144
83 -138 98 3 7 1 11 -4 8 -5 -3 -14 1 -21 9 -26 31 -29 2 -3 -33 39 -54 68
-81 146 -137 101 -72 102 -76 40 -130 -65 -57 -89 -119 -80 -206 l7 -57 -38
-7 c-42 -7 -295 9 -417 26 -107 14 -250 44 -364 75 -65 17 -96 22 -102 15 -5
-6 -6 -9 -3 -6 4 2 33 -9 66 -26 205 -103 340 -136 772 -184 47 -5 65 -13 95
-40 l36 -33 -1 -184 c0 -181 -1 -185 -41 -338 -57 -219 -103 -361 -116 -353
-5 3 -7 2 -4 -4 9 -14 -14 -83 -26 -76 -6 3 -7 1 -3 -5 8 -13 -48 -130 -93
-195 -16 -24 -45 -57 -64 -73 -18 -16 -58 -50 -88 -76 -90 -77 -108 -90 -120
-82 -7 4 -9 3 -6 -3 9 -15 -65 -43 -113 -43 -63 0 -67 19 -36 186 54 297 59
458 16 619 -62 232 -257 478 -458 575 -114 55 -200 63 -100 10 29 -16 52 -34
50 -40 -1 -6 2 -9 8 -5 16 10 101 -57 179 -141 82 -88 140 -196 171 -318 35
-138 23 -366 -30 -556 -22 -80 -96 -240 -111 -240 -5 0 -9 -6 -9 -13 0 -21
-102 -120 -154 -151 -40 -23 -56 -27 -115 -25 l-68 2 19 56 c25 70 39 200 31
292 -8 98 -21 101 -38 9 -13 -67 -45 -163 -72 -212 -30 -56 -79 -102 -99 -94
-8 3 -14 1 -14 -4 0 -12 -73 18 -145 59 -66 37 -142 101 -137 114 1 5 -2 6 -8
2 -14 -9 -272 234 -319 300 -49 69 -60 90 -82 152 -30 88 -48 245 -58 500 -7
160 -15 258 -26 298 -58 215 -25 361 85 380 21 4 63 21 94 40 54 32 55 32 144
26 55 -4 88 -3 84 3 -3 5 2 7 11 3 10 -3 17 -3 17 1 0 4 21 18 46 31 58 31
108 88 165 190 25 44 49 78 52 75 3 -3 3 3 0 15 -9 33 5 24 26 -18 27 -52 45
-162 37 -227 -5 -45 -79 -264 -107 -316 -12 -22 -132 -100 -199 -128 -30 -12
-86 -26 -125 -29 l-70 -8 39 -17 c56 -25 131 -30 196 -12 30 8 58 12 62 10 3
-2 10 -30 14 -61 8 -67 -12 -143 -58 -215 -33 -53 -101 -118 -122 -118 -8 0
-18 -5 -22 -12 -10 -16 62 -3 117 21 24 11 47 17 53 14 5 -3 7 -2 4 3 -3 5 7
19 23 32 l28 23 10 -37 c10 -35 8 -39 -23 -68 -54 -51 -104 -119 -130 -177
-27 -58 -44 -139 -30 -139 5 0 24 26 43 58 42 70 43 70 124 156 64 66 67 68
89 54 55 -36 134 -214 168 -373 20 -99 20 -99 33 -86 7 7 11 50 11 114 0 130
-24 214 -111 399 -35 76 -62 141 -59 146 14 24 36 250 28 294 -10 51 3 105 34
139 33 37 299 22 470 -27 128 -36 340 -133 431 -195 24 -17 49 -29 54 -27 19
6 -107 114 -194 167 -45 28 -88 55 -94 61 -7 6 -13 9 -13 6 0 -3 -29 8 -65 24
-78 35 -189 71 -327 105 -152 38 -157 41 -186 103 -19 42 -27 80 -33 166 -14
198 -63 286 -162 286 -65 0 -151 -38 -208 -91 -71 -66 -104 -90 -115 -81 -5 4
-6 3 -2 -2 8 -10 -59 -65 -79 -66 -7 0 -13 -4 -13 -8 0 -7 -71 -52 -82 -52 -8
0 -125 253 -200 430 -40 96 -74 177 -75 180 -2 3 24 17 57 33 32 15 79 47 104
71 70 70 87 118 20 61 -39 -34 -180 -105 -208 -105 -26 0 -64 75 -161 315 -31
77 -68 160 -82 185 -14 25 -42 97 -63 160 -21 63 -50 143 -64 177 -45 105 -36
231 19 283 35 33 99 32 159 -4 27 -16 44 -32 40 -38 -4 -6 -3 -8 4 -4 25 15
112 -119 95 -146 -3 -6 -2 -8 4 -5 9 6 39 -68 35 -85 -1 -5 3 -8 8 -8 6 0 10
-5 10 -11 0 -6 16 -47 35 -91 19 -44 32 -85 29 -91 -4 -7 -4 -9 1 -5 13 12 51
-49 116 -182 111 -230 129 -262 175 -314 74 -81 190 -277 178 -299 -4 -7 -4
-9 1 -5 4 4 21 -13 36 -37 70 -110 258 -161 344 -93 88 69 131 242 96 387 -16
61 -9 161 15 256 12 42 17 116 19 250 2 138 8 224 24 315 32 191 28 178 64
182 l32 3 -25 15 c-24 14 -25 17 -15 58 l11 43 17 -58 c12 -41 18 -112 22
-238 4 -166 18 -324 31 -368 5 -17 0 -18 -60 -15 -44 2 -67 -1 -70 -9 -7 -19
44 -46 96 -51 l48 -5 -7 -51 c-5 -28 -7 -116 -7 -196 1 -140 12 -206 49 -294
7 -16 5 -18 -10 -12 -11 4 -55 10 -100 13 -91 6 -92 -4 0 -31 73 -22 145 -62
145 -81 0 -29 33 -111 58 -145 15 -19 26 -38 24 -43 -1 -4 1 -6 5 -5 5 1 26
-10 48 -24 48 -33 146 -68 189 -68 l30 0 -24 16 c-38 26 -140 127 -140 140 0
6 -23 48 -50 94 -28 46 -52 88 -53 94 -1 6 -6 14 -10 17 -20 15 -67 274 -67
369 l0 39 51 -26 c64 -31 159 -48 222 -39 60 9 60 22 1 31 -87 13 -92 21 -16
28 39 3 81 12 94 19 22 13 22 13 -12 15 -151 11 -315 25 -327 30 -10 4 -12 14
-8 33 3 15 1 92 -5 171 -6 79 -15 209 -20 289 -7 133 -11 155 -50 270 -66 197
-60 299 22 364 26 20 44 26 87 26 50 0 57 -3 90 -38z m-646 -1919 c-15 -43
-90 -161 -127 -201 -33 -36 -87 -75 -98 -71 -2 0 -16 -4 -31 -10 -35 -14 -110
-14 -105 -1 2 5 60 67 129 138 105 106 134 131 175 144 63 21 65 21 57 1z"/>
<path d="M1147 3589 c-9 -6 -22 -7 -29 -3 -6 4 -8 3 -5 -3 4 -7 -24 -22 -71
-39 -134 -48 -134 -48 -82 -52 64 -5 124 15 173 58 41 37 49 58 14 39z"/>
<path d="M1669 2571 c-32 -15 -73 -39 -93 -54 -39 -31 -92 -95 -84 -103 7 -6
240 149 258 171 20 24 -17 18 -81 -14z"/>
</g>
</svg>
